<svg xmlns="http://www.w3.org/2000/svg" version="1.1" xmlns:xlink="http://www.w3.org/1999/xlink" xmlns:svgjs="http://svgjs.dev/svgjs" width="1440" height="560" preserveAspectRatio="none" viewBox="0 0 1440 560"><g mask="url(&quot;#SvgjsMask1010&quot;)" fill="none"><rect width="1440" height="560" x="0" y="0" fill="rgba(255, 255, 255, 1)"></rect><path d="M420 91.43C401.51 91.43 379.66 114.25 379.66 140C379.66 171.59 401.82 206.11 420 206.11C437.05 206.11 450.13 172.09 450.13 140C450.13 114.75 436.74 91.43 420 91.43" stroke="rgba(213, 248, 237, 1)" stroke-width="2"></path><path d="M509.6 0C537.52 6.28 533.97 31.5 560 31.5C591.48 31.5 590.45 7.69 624.62 0C660.45 -8.06 662.31 0 700 0C770 0 770 0 840 0C910 0 910 0 980 0C1035.68 0 1037.77 -7.09 1091.36 0C1107.77 2.17 1104.27 18.53 1120 18.53C1151.75 18.53 1152.5 4.48 1186.32 0C1222.5 -4.79 1223.16 0 1260 0C1291.82 0 1292.79 -5.79 1323.64 0C1362.79 7.34 1360.44 20.72 1400 26.25C1468.62 35.84 1500.76 -1.65 1540 30.23C1570.76 55.22 1540 85.12 1540 140C1540 210 1540 210 1540 280C1540 350 1540 350 1540 420C1540 490 1575 525 1540 560C1505 595 1470 560 1400 560C1330 560 1330 560 1260 560C1210.13 560 1202.28 575.85 1160.25 560C1132.28 549.45 1139.12 507.21 1120 507.21C1101.87 507.21 1111.86 550.15 1085.74 560C1041.86 576.55 1032.87 560 980 560C922.88 560 918.6 570.07 865.75 560C848.6 556.73 853.06 546.48 840 533.33C783.52 476.48 781.22 478.47 726.67 420C711.22 403.44 716.81 383.28 700 383.28C674.75 383.28 655.21 391.27 642.56 420C616.32 479.63 650.89 511.38 622.22 560C609.61 581.38 591.11 560 560 560C490 560 490 560 420 560C369.18 560 356.51 580.62 318.36 560C286.51 542.78 311.39 485.44 280 484.32C222.21 482.26 211.91 525.37 140 553.64C115.66 563.21 113.87 558.8 87.5 560C43.87 561.98 16.83 586.92 0 560C-26.92 516.92 0 490 0 420C0 350 -34.95 312.38 0 280C35.05 247.53 73.97 270.97 140 290.29C213.97 311.94 216.59 364.94 280 361.95C325.66 359.8 358.14 316.43 358.14 280C358.14 250 323.14 244.47 280 229.09C214.07 205.58 205.93 190.23 140 202.22C65.93 215.69 37.35 296.6 0 280C-32.65 265.49 0 210 0 140C0 70 -35 35 0 0C35 -35 70 0 140 0C210 0 210 0 280 0C350 0 350 0 420 0C464.8 0 467.52 -9.47 509.6 0" stroke="rgba(213, 248, 237, 1)" stroke-width="2"></path><path d="M700 65.33C668.94 65.33 660.93 104.57 660.93 140C660.93 166.25 673.46 188.7 700 188.7C763 188.7 785.13 118.68 840 140C902.63 164.33 892.1 207.4 935 280C962.1 325.86 941.51 367.92 980 376.92C1034.01 389.55 1057.28 359.23 1120 323.27C1141.79 310.77 1149.02 300.5 1149.02 280C1149.02 263.2 1134.81 264.05 1120 248.68C1067.35 194.05 1064.29 196.62 1014.1 140C994.29 117.65 1005.03 90.74 980 90.74C917.98 90.74 907.66 146.14 840 140C767.66 133.44 758.48 65.33 700 65.33" stroke="rgba(213, 248, 237, 1)" stroke-width="2"></path><path d="M1400 259.34C1390.32 259.34 1385.05 267.13 1382.97 280C1372.05 347.46 1367.74 352.61 1374 420C1376.25 444.27 1385.59 463.33 1400 463.33C1415.76 463.33 1430.55 445.92 1434.34 420C1443.95 354.26 1440.64 344.71 1426.81 280C1423.47 264.38 1412.24 259.34 1400 259.34" stroke="rgba(213, 248, 237, 1)" stroke-width="2"></path><path d="M140 85.56C105.63 85.56 105.71 111.76 73.18 140C35.71 172.52 21.84 207.08 0 207.08C-14.75 207.08 0 173.54 0 140C0 70 -35 35 0 0C35 -35 70 0 140 0C192.5 0 201.81 -16.97 245 0C271.81 10.53 264.58 26.35 280 55C302.25 96.35 320.34 101.57 320.34 140C320.34 162.1 302.04 176.06 280 176.06C250.56 176.06 247.69 159.6 217.37 140C177.69 114.35 177.73 85.56 140 85.56" stroke="rgba(213, 248, 237, 1)" stroke-width="2"></path><path d="M420 20C395.03 20 365.56 5.16 365.56 0C365.56 -4.84 392.78 0 420 0C429.8 0 439.6 -4.12 439.6 0C439.6 5.88 432.05 20 420 20" stroke="rgba(213, 248, 237, 1)" stroke-width="2"></path><path d="M494.43 140C494.43 105.02 527.9 75.25 560 75.25C590.8 75.25 620.23 105.27 620.23 140C620.23 182.3 591.01 229.31 560 229.31C528.11 229.31 494.43 182.05 494.43 140" stroke="rgba(213, 248, 237, 1)" stroke-width="2"></path><path d="M980 25.93C943.48 25.93 902.22 6.65 902.22 0C902.22 -6.31 941.11 0 980 0C995.91 0 1011.82 -5.66 1011.82 0C1011.82 7.3 998.28 25.93 980 25.93" stroke="rgba(213, 248, 237, 1)" stroke-width="2"></path><path d="M1058.97 140C1058.97 105.85 1086.12 70 1120 70C1161.54 70 1165.85 103.87 1209.81 140C1235.85 161.41 1234.12 185.08 1260 185.08C1288.13 185.08 1288.42 161.88 1317.83 140C1358.42 109.81 1353.48 95.6 1400 80.94C1464.56 60.6 1493.29 50.29 1540 70C1563.29 79.82 1540 105 1540 140C1540 210 1540 210 1540 280C1540 350 1540 350 1540 420C1540 472.5 1549.58 525 1540 525C1529.77 525 1508.99 474.5 1500.38 420C1489.63 352 1527.51 336.98 1501.28 280C1477.32 227.97 1446.23 201.97 1400 201.97C1363.43 201.97 1351.58 234.37 1335.68 280C1313.58 343.39 1308.32 355.01 1324 420C1340.48 488.34 1351.7 497.74 1400 546.67C1420.81 567.74 1462.22 556.63 1462.22 560C1462.22 563.3 1431.11 560 1400 560C1330 560 1330 560 1260 560C1232 560 1224.15 575.86 1204 560C1154.15 520.78 1167.67 498.37 1120 449.84C1098.91 428.37 1066.47 435.52 1066.47 420C1066.47 404.06 1099.44 409.89 1120 386.91C1162.06 339.89 1191.71 330.64 1191.71 280C1191.71 238.5 1156.29 240.9 1120 202.63C1089.92 170.9 1058.97 172.16 1058.97 140" stroke="rgba(213, 248, 237, 1)" stroke-width="2"></path><path d="M631.71 280C631.71 258.76 664.07 239.42 700 239.42C752.06 239.42 754.57 258.1 807.69 280C824.57 286.96 827.92 283.76 840 297.14C891.11 353.76 884.43 360.9 934.06 420C954.43 444.27 959.98 439.39 980 463.88C1017.2 509.39 1048.51 529.59 1048.51 560C1048.51 577.65 1014.26 560 980 560C942.99 560 936.64 574.96 905.98 560C866.64 540.8 873.3 525.53 840 491.67C804.47 455.53 800.93 458.6 768.33 420C730.93 375.71 740 366.89 700 325.9C671.69 296.89 631.71 302 631.71 280" stroke="rgba(213, 248, 237, 1)" stroke-width="2"></path><path d="M0 331.47C42.93 307.48 75.92 319.57 140 341.76C203.74 363.83 255.65 380.48 255.65 420C255.65 459.9 203.95 476.71 140 500.61C76.13 524.49 41.7 539.57 0 515.56C-28.3 499.26 0 467.78 0 420C0 375.74 -27.07 346.6 0 331.47" stroke="rgba(213, 248, 237, 1)" stroke-width="2"></path><path d="M311.11 420C324.89 354.51 362.93 304.71 420 304.71C482.71 304.71 521.5 349.7 550.67 420C574.47 477.35 563.39 519.89 525.95 560C498.05 589.89 472.98 560 420 560C393.15 560 380.62 578.41 366.3 560C326.17 508.41 298.04 482.15 311.11 420" stroke="rgba(213, 248, 237, 1)" stroke-width="2"></path><path d="M140 20.74C114.97 20.74 86.67 5.37 86.67 0C86.67 -5 113.34 0 140 0C152.73 0 165.45 -4.53 165.45 0C165.45 5.84 154.36 20.74 140 20.74" stroke="rgba(213, 248, 237, 1)" stroke-width="2"></path><path d="M538.73 140C538.73 128.66 549.59 119 560 119C569.99 119 579.53 128.74 579.53 140C579.53 153.72 570.06 168.97 560 168.97C549.66 168.97 538.73 153.64 538.73 140" stroke="rgba(213, 248, 237, 1)" stroke-width="2"></path><path d="M1103.85 140C1103.85 130.96 1111.03 121.47 1120 121.47C1130.99 121.47 1143.77 131.05 1143.77 140C1143.77 148.61 1131.1 156.58 1120 156.58C1111.14 156.58 1103.85 148.51 1103.85 140" stroke="rgba(213, 248, 237, 1)" stroke-width="2"></path><path d="M1393.91 140C1393.91 137.78 1396.35 136.39 1400 135.63C1469.39 121.27 1482.26 107.97 1540 109.77C1552.26 110.15 1540 124.88 1540 140C1540 182.9 1564.25 225.01 1540 225.81C1494.25 227.31 1469.76 185.56 1400 144.59C1396.71 142.66 1393.91 142.26 1393.91 140" stroke="rgba(213, 248, 237, 1)" stroke-width="2"></path><path d="M1234.39 280C1240.46 259.33 1246.76 244.41 1260 244.41C1273.75 244.41 1286.67 258.54 1288.38 280C1293.67 346.34 1272.35 350.21 1274 420C1275.66 490.21 1300.61 503.88 1295 560C1293.61 573.88 1277.5 560 1260 560C1253.88 560 1249.75 565.44 1247.75 560C1223.96 495.44 1211.8 490.74 1208.42 420C1205.12 350.74 1214.67 347.12 1234.39 280" stroke="rgba(213, 248, 237, 1)" stroke-width="2"></path><path d="M0 382.94C55.38 372.35 73.01 379.41 140 393.24C162.8 397.94 179.57 406.48 179.57 420C179.57 433.65 162.94 442.47 140 447.58C73.15 462.47 54.49 470.73 0 460C-15.51 456.94 0 440 0 420C0 401.47 -14.62 385.73 0 382.94" stroke="rgba(213, 248, 237, 1)" stroke-width="2"></path><path d="M408.33 420C408.64 411.76 413.88 407.65 420 407.65C426.72 407.65 433.33 411.04 434 420C439.01 487.21 437.83 495.25 431.35 560C430.83 565.25 425.67 560 420 560C417.13 560 414.48 562.76 414.25 560C408.64 492.76 405.77 487.94 408.33 420" stroke="rgba(213, 248, 237, 1)" stroke-width="2"></path><path d="M810 420C810 396.23 823.39 368.57 840 368.57C858.08 368.57 879.38 396.92 879.38 420C879.38 437.64 858.68 450 840 450C823.99 450 810 436.94 810 420" stroke="rgba(213, 248, 237, 1)" stroke-width="2"></path><path d="M946.21 560C946.21 546.37 963.51 516.12 980 516.12C996.04 516.12 1011.28 546.12 1011.28 560C1011.28 568.06 995.64 560 980 560C963.11 560 946.21 568.31 946.21 560" stroke="rgba(213, 248, 237, 1)" stroke-width="2"></path></g><defs><mask id="SvgjsMask1010"><rect width="1440" height="560" fill="#ffffff"></rect></mask></defs></svg>