<svg xmlns="http://www.w3.org/2000/svg" version="1.1" xmlns:xlink="http://www.w3.org/1999/xlink" xmlns:svgjs="http://svgjs.dev/svgjs" width="1440" height="560" preserveAspectRatio="none" viewBox="0 0 1440 560"><g mask="url(&quot;#SvgjsMask1002&quot;)" fill="none"><path d="M358.23 593.28C468.37 589.42 558.24 416.14 761.81 415.9 965.37 415.66 963.6 485.9 1165.38 485.9 1367.17 485.9 1466.56 416.16 1568.96 415.9" stroke="rgba(219, 252, 231, 1)" stroke-width="2"></path><path d="M650.93 625.57C825.39 593.43 911.26 156.19 1182.14 155.15 1453.03 154.11 1565.92 406.07 1713.36 412.75" stroke="rgba(219, 252, 231, 1)" stroke-width="2"></path><path d="M764.02 643.21C860.98 642.08 930.05 542.63 1136.06 533.62 1342.08 524.61 1397.08 298.05 1508.11 287.22" stroke="rgba(219, 252, 231, 1)" stroke-width="2"></path><path d="M282.7 657.11C463.99 646.75 574.49 328.34 924.15 316.37 1273.81 304.4 1396.22 100.94 1565.6 97.97" stroke="rgba(219, 252, 231, 1)" stroke-width="2"></path><path d="M102.89 566.96C234.64 558.99 330.4 315.7 566.76 314.84 803.12 313.98 798.69 384.84 1030.63 384.84 1262.56 384.84 1377.22 315.04 1494.5 314.84" stroke="rgba(219, 252, 231, 1)" stroke-width="2"></path></g><defs><mask id="SvgjsMask1002"><rect width="1440" height="560" fill="#ffffff"></rect></mask></defs></svg>